<?xml version="1.0" encoding="UTF-8"?>
<!DOCTYPE svg PUBLIC "-//W3C//DTD SVG 1.1//EN" "http://www.w3.org/Graphics/SVG/1.1/DTD/svg11.dtd">
<svg xmlns="http://www.w3.org/2000/svg" version="1.1" width="1126px" height="467px" style="shape-rendering:geometricPrecision; text-rendering:geometricPrecision; image-rendering:optimizeQuality; fill-rule:evenodd; clip-rule:evenodd" xmlns:xlink="http://www.w3.org/1999/xlink">
<g><path style="opacity:0.903" fill="#febd00" d="M 219.5,124.5 C 237.736,123.573 255.736,125.073 273.5,129C 275.754,130.256 278.088,131.423 280.5,132.5C 281.298,130.922 281.798,129.256 282,127.5C 282.893,126.919 283.893,126.585 285,126.5C 287.834,128.269 290.834,129.935 294,131.5C 296.401,130.398 298.901,130.231 301.5,131C 302.406,132.699 302.739,134.533 302.5,136.5C 308.548,137.46 309.881,140.627 306.5,146C 303.556,146.97 300.556,147.804 297.5,148.5C 299.046,154.04 299.88,159.706 300,165.5C 300.219,164.062 300.719,162.729 301.5,161.5C 306.518,166.684 311.351,172.017 316,177.5C 316.591,178.483 316.257,179.15 315,179.5C 308.491,178.232 301.991,176.898 295.5,175.5C 284.971,181.217 273.971,182.051 262.5,178C 255.981,174.939 249.315,172.272 242.5,170C 203.971,165.742 184.637,182.908 184.5,221.5C 184.809,261.199 204.809,278.365 244.5,273C 256.575,269.896 268.908,268.563 281.5,269C 288.87,270.035 293.37,274.202 295,281.5C 297.049,291.339 294.216,299.339 286.5,305.5C 277.698,311.287 268.031,314.787 257.5,316C 241.131,316.888 224.798,316.555 208.5,315C 174.01,306.513 153.177,285.013 146,250.5C 142.988,227.522 144.321,204.855 150,182.5C 162.515,150.132 185.682,130.799 219.5,124.5 Z M 292.5,134.5 C 294.658,142.178 293.325,143.011 288.5,137C 290.066,136.392 291.4,135.558 292.5,134.5 Z"/></g>
<g><path style="opacity:1" fill="#bfbcb5" d="M 286.5,154.5 C 288.048,154.821 288.715,155.821 288.5,157.5C 287.5,157.5 286.5,157.5 285.5,157.5C 285.263,156.209 285.596,155.209 286.5,154.5 Z"/></g>
<g><path style="opacity:1" fill="#211b0e" d="M 286.5,154.5 C 288.988,153.082 290.654,153.916 291.5,157C 291.138,158.885 289.971,159.719 288,159.5C 286.624,159.316 285.791,158.649 285.5,157.5C 286.5,157.5 287.5,157.5 288.5,157.5C 288.715,155.821 288.048,154.821 286.5,154.5 Z"/></g>
<g><path style="opacity:0.958" fill="#ffbd00" d="M 310.5,194.5 C 315.742,193.271 319.575,194.937 322,199.5C 322.925,203.445 323.425,207.445 323.5,211.5C 322.615,220.837 322.115,230.17 322,239.5C 334.005,222.454 348.838,219.287 366.5,230C 371.926,236.934 375.426,244.768 377,253.5C 380.203,268.159 380.203,282.826 377,297.5C 375.923,302.823 373.423,307.323 369.5,311C 362.657,314.231 357.823,312.398 355,305.5C 354.827,289.83 354.827,274.163 355,258.5C 352.222,244.798 344.722,241.298 332.5,248C 326.542,255.04 323.876,263.207 324.5,272.5C 325.13,281.336 325.797,290.169 326.5,299C 328.283,308.084 324.783,313.584 316,315.5C 308.309,314.172 304.309,309.506 304,301.5C 298.465,270.614 297.465,239.614 301,208.5C 302.461,202.55 305.627,197.883 310.5,194.5 Z"/></g>
<g><path style="opacity:0.954" fill="#ffbe00" d="M 538.5,194.5 C 545.119,195.632 548.286,199.632 548,206.5C 548.12,222.233 547.454,237.9 546,253.5C 554.545,240.621 565.379,230.121 578.5,222C 584.153,218.902 590.153,217.902 596.5,219C 602.049,224.49 602.549,230.323 598,236.5C 586.604,248.455 573.104,257.288 557.5,263C 571.821,270.913 584.321,281.08 595,293.5C 599.534,298.696 600.367,304.363 597.5,310.5C 593.685,313.424 589.351,314.258 584.5,313C 574.655,309.168 566.489,303.001 560,294.5C 555.42,288.34 551.086,282.007 547,275.5C 545.945,283.825 544.945,292.158 544,300.5C 543.466,304.768 542.133,308.768 540,312.5C 534.522,317.002 529.855,316.335 526,310.5C 522.157,284.604 521.49,258.604 524,232.5C 524.635,220.652 527.302,209.318 532,198.5C 533.792,196.372 535.958,195.039 538.5,194.5 Z"/></g>
<g><path style="opacity:0.957" fill="#ffbe00" d="M 930.5,194.5 C 933.602,194.154 936.435,194.821 939,196.5C 941.594,202.209 942.927,208.209 943,214.5C 944.504,240.617 942.67,266.45 937.5,292C 939.823,291.694 942.156,291.028 944.5,290C 955.759,288.269 959.259,292.769 955,303.5C 947.802,313.204 938.635,316.037 927.5,312C 923.788,307.542 921.621,302.376 921,296.5C 917.699,270.84 917.699,245.174 921,219.5C 921.823,213.383 923.157,207.383 925,201.5C 925.967,198.379 927.8,196.046 930.5,194.5 Z"/></g>
<g><path style="opacity:0.934" fill="#ffbe00" d="M 404.5,198.5 C 417.488,196.322 422.988,201.656 421,214.5C 417.672,219.882 412.838,222.049 406.5,221C 397.538,217.681 395.038,211.514 399,202.5C 400.812,201.023 402.645,199.69 404.5,198.5 Z"/></g>
<g><path style="opacity:0.955" fill="#ffbe00" d="M 767.5,205.5 C 802.613,202.44 816.779,218.107 810,252.5C 802.847,266.083 791.513,272.75 776,272.5C 769.681,272.336 763.515,271.336 757.5,269.5C 758.703,278.14 759.703,286.807 760.5,295.5C 759.91,299.888 759.077,304.221 758,308.5C 754.723,314.109 749.89,315.942 743.5,314C 738.366,310.641 735.866,305.808 736,299.5C 734.985,279.769 735.652,260.103 738,240.5C 739.14,221.214 748.973,209.547 767.5,205.5 Z M 772.5,222.5 C 780.187,220.996 786.687,222.996 792,228.5C 796.345,244.355 790.178,253.022 773.5,254.5C 759.628,253.417 755.461,246.417 761,233.5C 763.412,228.252 767.246,224.586 772.5,222.5 Z"/></g>
<g><path style="opacity:0.955" fill="#ffbe00" d="M 849.5,219.5 C 862.432,217.484 874.099,220.317 884.5,228C 892.624,238.017 897.457,249.517 899,262.5C 900.923,277.854 900.923,293.188 899,308.5C 896.51,315.16 892.01,316.993 885.5,314C 882.878,311.058 881.378,307.558 881,303.5C 876.751,308.373 871.584,311.873 865.5,314C 857.555,315.488 849.555,315.822 841.5,315C 827.182,311.683 819.849,302.683 819.5,288C 819.566,274.599 825.9,265.599 838.5,261C 852.477,257.572 865.644,259.405 878,266.5C 877.437,248.604 868.27,240.771 850.5,243C 843.801,245.6 836.968,247.767 830,249.5C 824.261,249.261 821.428,246.261 821.5,240.5C 822.632,233.191 826.632,228.025 833.5,225C 838.846,222.83 844.179,220.997 849.5,219.5 Z M 850.5,275.5 C 859.253,274.563 867.587,275.896 875.5,279.5C 879.738,284.333 879.405,288.833 874.5,293C 864.312,298.514 853.979,298.848 843.5,294C 838.385,285.058 840.718,278.892 850.5,275.5 Z"/></g>
<g><path style="opacity:0.956" fill="#ffbe00" d="M 474.5,223.5 C 483.994,222.895 493.328,223.729 502.5,226C 511.475,229.282 514.641,235.448 512,244.5C 510.786,246.049 509.286,247.215 507.5,248C 503.833,248.667 500.167,248.667 496.5,248C 467.971,239.97 455.471,250.47 459,279.5C 462.86,288.66 469.86,292.994 480,292.5C 487.186,291.272 494.352,289.938 501.5,288.5C 504.253,288.353 506.753,289.02 509,290.5C 512.301,300.893 508.801,308.059 498.5,312C 482.053,317.42 466.053,316.42 450.5,309C 442.744,302.658 438.244,294.491 437,284.5C 433.711,264.37 439.211,247.204 453.5,233C 459.848,228.171 466.848,225.005 474.5,223.5 Z"/></g>
<g><path style="opacity:0.956" fill="#ffbe00" d="M 409.5,231.5 C 414.696,232.192 417.863,235.192 419,240.5C 420.998,250.384 421.832,260.384 421.5,270.5C 421.798,281.271 420.965,291.938 419,302.5C 417.913,309.385 414.079,313.719 407.5,315.5C 402.727,314.998 399.894,312.332 399,307.5C 395.732,287.849 395.732,268.183 399,248.5C 400.027,241.077 403.527,235.41 409.5,231.5 Z"/></g>
<g><path style="opacity:0.947" fill="#ffbe00" d="M 662.5,251.5 C 670.174,251.334 677.841,251.5 685.5,252C 692.169,254.507 694.002,259.007 691,265.5C 687.086,268.695 682.586,270.529 677.5,271C 665.865,272.435 654.199,272.768 642.5,272C 637.087,268.58 636.087,264.08 639.5,258.5C 641.336,257.081 643.336,255.914 645.5,255C 651.265,253.614 656.931,252.448 662.5,251.5 Z"/></g>
</svg>
